<?xml version="1.0" encoding="UTF-8" standalone="no"?>
<!-- Created with Inkscape (http://www.inkscape.org/) -->

<svg
   xmlns:osb="http://www.openswatchbook.org/uri/2009/osb"
   xmlns:dc="http://purl.org/dc/elements/1.1/"
   xmlns:cc="http://creativecommons.org/ns#"
   xmlns:rdf="http://www.w3.org/1999/02/22-rdf-syntax-ns#"
   xmlns:svg="http://www.w3.org/2000/svg"
   xmlns="http://www.w3.org/2000/svg"
   xmlns:sodipodi="http://sodipodi.sourceforge.net/DTD/sodipodi-0.dtd"
   xmlns:inkscape="http://www.inkscape.org/namespaces/inkscape"
   width="750"
   height="750"
   viewBox="0 0 749.99998 749.99997"
   id="svg2"
   version="1.1"
   inkscape:version="0.91 r13725"
   sodipodi:docname="gbyzanz.svg"
   inkscape:export-filename="/home/wanqing/Desktop/Gbyzanz-icons/32x32/gbyzanz"
   inkscape:export-xdpi="3.8399999"
   inkscape:export-ydpi="3.8399999">
  <defs
     id="defs4">
    <linearGradient
       id="linearGradient11606"
       osb:paint="solid">
      <stop
         style="stop-color:#392641;stop-opacity:1;"
         offset="0"
         id="stop11608" />
    </linearGradient>
    <linearGradient
       id="linearGradient10166"
       osb:paint="solid">
      <stop
         style="stop-color:#000000;stop-opacity:1;"
         offset="0"
         id="stop10168" />
    </linearGradient>
  </defs>
  <sodipodi:namedview
     id="base"
     pagecolor="#ffffff"
     bordercolor="#666666"
     borderopacity="1.0"
     inkscape:pageopacity="0.0"
     inkscape:pageshadow="2"
     inkscape:zoom="0.66000001"
     inkscape:cx="375"
     inkscape:cy="375"
     inkscape:document-units="px"
     inkscape:current-layer="g13829"
     showgrid="false"
     showguides="true"
     inkscape:guide-bbox="true"
     inkscape:window-width="1366"
     inkscape:window-height="692"
     inkscape:window-x="0"
     inkscape:window-y="0"
     inkscape:window-maximized="1"
     showborder="true"
     units="px"
     fit-margin-top="0"
     fit-margin-left="0"
     fit-margin-right="0"
     fit-margin-bottom="0" />
  <metadata
     id="metadata7">
    <rdf:RDF>
      <cc:Work
         rdf:about="">
        <dc:format>image/svg+xml</dc:format>
        <dc:type
           rdf:resource="http://purl.org/dc/dcmitype/StillImage" />
        <dc:title />
      </cc:Work>
    </rdf:RDF>
  </metadata>
  <g
     inkscape:label="Layer 1"
     inkscape:groupmode="layer"
     id="layer1"
     transform="translate(3.9160619,-144.62299)">
    <g
       id="g13829"
       transform="matrix(0.93166097,0,0,0.93166097,23.955566,61.137662)">
      <rect
         transform="matrix(0,-1,1,0,0,0)"
         rx="375"
         ry="375"
         y="-29.916058"
         x="-894.62299"
         height="805.01385"
         width="805.01385"
         id="rect13767"
         style="opacity:1;fill:#77216f;fill-opacity:1;stroke:none;stroke-width:16.10027734;stroke-linecap:round;stroke-linejoin:round;stroke-miterlimit:4;stroke-dasharray:none;stroke-opacity:1"
         inkscape:export-filename="/home/wanqing/Desktop/Gbyzanz-icons/16x16/gbyzanz.png"
         inkscape:export-xdpi="1.92"
         inkscape:export-ydpi="1.92" />
      <rect
         transform="matrix(0,-1,1,0,0,0)"
         style="opacity:1;fill:#85377d;fill-opacity:1;stroke:#392641;stroke-width:0;stroke-linecap:round;stroke-linejoin:bevel;stroke-miterlimit:4;stroke-dasharray:none;stroke-opacity:1"
         id="rect13769"
         width="705.01398"
         height="705.01398"
         x="-894.62299"
         y="-29.916058"
         ry="375"
         rx="375" />
      <rect
         transform="matrix(0,-1,1,0,0,0)"
         rx="375"
         ry="375"
         y="-29.916058"
         x="-894.62299"
         height="605.01398"
         width="605.01398"
         id="rect13771"
         style="opacity:1;fill:#924d8c;fill-opacity:1;stroke:#392641;stroke-width:0;stroke-linecap:round;stroke-linejoin:bevel;stroke-miterlimit:4;stroke-dasharray:none;stroke-opacity:1" />
      <rect
         transform="matrix(0,-1,1,0,0,0)"
         style="opacity:1;fill:#ad7aa9;fill-opacity:1;stroke:#392641;stroke-width:0;stroke-linecap:round;stroke-linejoin:bevel;stroke-miterlimit:4;stroke-dasharray:none;stroke-opacity:1"
         id="rect13773"
         width="505.01401"
         height="505.01401"
         x="-894.62299"
         y="-29.916058"
         ry="375"
         rx="375" />
      <g
         style="font-style:normal;font-weight:normal;font-size:40px;line-height:125%;font-family:sans-serif;letter-spacing:0px;word-spacing:0px;fill:#000000;fill-opacity:1;stroke:none;stroke-width:1px;stroke-linecap:butt;stroke-linejoin:miter;stroke-opacity:1"
         id="text4146">
        <path
           d="m 271.82617,722.58051 q -6.49414,-5.12696 -6.49414,-11.9629 l 0,-1.36718 q 0,-6.83594 6.15234,-12.98828 l -2.39257,-2.22168 q -6.15235,6.15234 -12.81739,6.15234 l -16.57714,0 q -10.42481,0 -17.08985,6.66504 l -3.58887,-3.58887 q 6.83594,-6.83594 6.83594,-16.91894 l 0,-25.29297 q 0,-10.25391 -6.83594,-17.08985 l 3.58887,-3.41796 q 6.49414,6.49414 17.08985,6.49414 l 104.93164,0 q 10.5957,0 17.08984,-6.49414 l 3.24707,3.41796 q -6.49414,6.49414 -6.49414,17.08985 l 0,71.60644 q 0,5.29785 1.36719,8.54493 1.53808,3.07617 5.98144,5.46875 l -2.73437,4.95605 q -3.07617,-1.53809 -7.00684,-1.53809 -3.75976,0 -8.71582,3.24707 -39.64844,26.48926 -112.79297,29.73633 l 0,16.40625 2.73438,18.96973 q 0,4.10156 -1.70899,6.32324 -1.70898,2.22168 -3.93066,2.22168 -2.05078,0 -3.75977,-2.05078 -1.70898,-2.05078 -1.70898,-4.10156 0,-1.87989 0.68359,-5.29785 2.05078,-10.59571 2.05078,-21.53321 0,-10.9375 -1.53808,-10.9375 -33.4961,0 -70.41016,-4.61426 -1.53808,-0.51269 -1.53808,18.28614 0,18.79883 3.07617,38.79394 3.24707,19.99512 3.24707,27.85645 0,15.89355 -9.74121,15.89355 -4.61426,0 -8.03223,-3.58886 -3.24707,-3.58887 -3.24707,-11.6211 0,-7.86133 5.63965,-28.36914 5.63965,-20.33691 5.63965,-31.78711 l 0,-26.66015 q -97.583011,-21.875 -97.583011,-117.74903 0,-72.97363 60.156251,-102.02637 34.69238,-16.91894 84.76562,-16.91894 80.83497,0 124.07227,31.61621 23.41309,17.08984 29.90723,38.96484 3.07617,10.25391 10.9375,15.72266 l -2.56348,3.41797 q -7.00684,-5.12695 -18.45703,-5.12695 l -72.11914,2.39257 q -10.7666,0.6836 -14.52637,8.20313 l -5.63965,-2.73438 q 1.36719,-2.90527 1.36719,-6.66503 0,-3.75977 -5.81055,-11.4502 -5.81054,-7.86133 -16.06445,-11.79199 -10.08301,-4.10156 -26.83105,-4.10156 -16.57715,0 -27.00196,4.78515 -10.4248,4.78516 -16.57715,13.15918 -11.96289,16.91895 -11.96289,44.77539 0,27.85645 17.77344,45.97168 17.94434,17.94434 46.82617,17.94434 28.88184,0 43.9209,-3.75977 2.73438,-0.68359 5.29785,-0.68359 2.56348,0 7.86133,4.10156 l 2.05078,-2.73437 z"
           style="font-style:normal;font-variant:normal;font-weight:normal;font-stretch:normal;font-size:350px;font-family:Nosifer;-inkscape-font-specification:Nosifer;fill:#ffffff"
           id="path4146" />
      </g>
    </g>
  </g>
</svg>
